<?xml version="1.0" encoding="utf-8"?>
<?xml-stylesheet type="text/xsl" href="rss1.xsl"?>
<rss version="2.0" xmlns:atom="http://www.w3.org/2005/Atom" xmlns:content="http://purl.org/rss/1.0/modules/content/" xmlns:dc="http://purl.org/dc/elements/1.1/" xmlns:media="http://search.yahoo.com/mrss/">
<channel>
 <title>Getty</title>
 <link>http://www.gettyimg.com/</link>
 <atom:link href="http://www.gettyimg.com/" rel="self" type="application/rss+xml" />

 
                <item>
                <title><![CDATA[【HD Live Performances】Coldplay - Live In São Paulo 2017 [1080p] | Official launch]]></title>
                <link><![CDATA[https://sharemania.us/threads/coldplay-live-in-s%C3%A3o-paulo-2017-1080p-official-launch.250044/]]></link>
                <description><![CDATA[<article>
<blockquote class="messageText SelectQuoteContainer ugc baseHtml">
<b><span style="color: #ff0000">Note: this is a re-upload of a previous post.</span></b><br>
<br>
<b><span style="font-size: 22px">Hello Everyone! </span></b><br>
<span style="font-size: 18px">I bring you (again) this concert requested in my profile</span> <br>
<b><span style="font-size: 26px"><span data-s9e-mediaembed="youtube" style="display:inline-block;width:100%;max-width:640px"><span style="display:block;overflow:hidden;position:relative;padding-bottom:56.25%"><iframe allowfullscreen="" loading="lazy" scrolling="no" style="background:url(https://i.ytimg.com/vi/-ZvsGmYKhcU/hqdefault.jpg) 50% 50% / cover;border:0;height:100%;left:0;position:absolute;width:100%" src="https://www.youtube.com/embed/-ZvsGmYKhcU"></iframe></span></span></span></b><br>
<br>
<b><span style="font-size: 22px">Tracklist:</span></b><br>
<span style="font-size: 18px"><i><b>[A-Stage]</b><br>
- A Head Full of Dreams<br>
- Yellow<br>
- Every Teardrop Is a Waterfall<br>
- The Scientist<br>
- Birds<br>
- Paradise</i><br>
<br>
<b><i>[B-Stage]</i></b><br>
<i>- Always in My Head<br>
- Magic<br>
- Everglow</i><br>
<br>
<b><i>[A-Stage]</i></b><br>
<i>- Clocks<br>
- Midnight<br>
- Charlie Brown<br>
- Hymn for the Weeknd<br>
- Fix You<br>
- Viva la Vida<br>
- Adventure of a Lifetime<br>
- Amazing Day</i><br>
<br>
<b><i>[C-Stage]</i></b><br>
<i>- Us Against the World<br>
- In My Place<br>
- Paulistanos</i><br>
<br>
<b><i>[A-Stage]</i></b><br>
<i>- Life is Beautiful<br>
- Something Just Like This<br>
- A Sky Full Of Stars<br>
- Up&amp;Up<br>
- End Credits</i></span><br>
<b><span style="font-size: 22px"><br>
<img src="https://i.postimg.cc/XYv3MYz8/Coldplay-Live-In-S-o-Paulo-2018-1080p-Web-DL-AVC-DVD-DTS-5-1-Kira-SEV-mkv.png" class="bbCodeImage LbImage" alt="[​IMG]" data-url="https://i.postimg.cc/XYv3MYz8/Coldplay-Live-In-S-o-Paulo-2018-1080p-Web-DL-AVC-DVD-DTS-5-1-Kira-SEV-mkv.png" style=""> </span></b><br>
<br>
<div class="ToggleTriggerAnchor bbCodeSpoilerContainer">
<button type="button" class="button bbCodeSpoilerButton ToggleTrigger Tooltip JsOnly" data-target="> .SpoilerTarget"><span>Spoiler: <span class="SpoilerTitle">MediaInfo</span></span></button>
<div class="SpoilerTarget bbCodeSpoilerText">General<br>
Format : Matroska<br>
Format version : Version 4<br>
File size : 5,41 GiB<br>
Duration : 2 h 0 min<br>
Overall bit rate : 6 447 kb/s<br>
Frame rate : 25,000 FPS<br>
Movie name : | Coldplay : Live In São Paulo [2018] | 1080p | iTunes WebDL | AVC | DVD DTS 5.1 | Kira [SEV] |<br>
Encoded date : 2019-06-25 01:55:30 UTC<br>
Writing application : mkvmerge v35.0.0 ('All The Love In The World') 64-bit<br>
Writing library : libebml v1.3.9 + libmatroska v1.5.2<br>
<br>
Vídeo<br>
ID : 1<br>
Format : AVC<br>
Format/Info : Advanced Video Codec<br>
Format profile : High@L4<br>
Format settings : CABAC / 5 Ref Frames<br>
Format settings, CABAC : Sí<br>
Format settings, Reference frames : 5 fotogramas<br>
Format settings, Slice count : 8 slices per frame<br>
Codec ID : V_MPEG4/ISO/AVC<br>
Duration : 2 h 0 min<br>
Bit rate : 4 796 kb/s<br>
Width : 1 920 píxeles<br>
Height : 816 píxeles<br>
Display aspect ratio : 2,35:1<br>
Frame rate mode : Constante<br>
Frame rate : 25,000 FPS<br>
Color space : YUV<br>
Chroma subsampling : 4:2:0<br>
Bit depth : 8 bits<br>
Scan type : Progresivo<br>
Bits/(Pixel*Frame) : 0.122<br>
Stream size : 4,02 GiB (74%)<br>
Title : | Coldplay : Live In São Paulo [2018] | 1080p | iTunes WebDL | AVC | DVD DTS 5.1 | Kira [SEV] |<br>
Language : Inglés<br>
Default : Sí<br>
Forced : No<br>
Color range : Limited<br>
Color primaries : BT.709<br>
Transfer characteristics : BT.709<br>
Matrix coefficients : BT.709<br>
<br>
Audio #1<br>
ID : 2<br>
Format : DTS<br>
Format/Info : Digital Theater Systems<br>
Codec ID : A_DTS<br>
Duration : 2 h 0 min<br>
Bit rate mode : Constante<br>
Bit rate : 754 kb/s<br>
Channel(s) : 6 canales<br>
Channel layout : C L R Ls Rs LFE<br>
Sampling rate : 48,0 kHz<br>
Frame rate : 93,750 FPS (512 SPF)<br>
Bit depth : 16 bits<br>
Compression mode : Con pérdida<br>
Delay relative to video : 961 ms<br>
Stream size : 648 MiB (12%)<br>
Title : English Org DVD DTS DD_5.1 @ 755 Kbps<br>
Language : Inglés<br>
Default : Sí<br>
Forced : No<br>
<br>
Audio #2<br>
ID : 3<br>
Format : AC-3<br>
Format/Info : Audio Coding 3<br>
Commercial name : Dolby Digital<br>
Codec ID : A_AC3<br>
Duration : 2 h 0 min<br>
Bit rate mode : Constante<br>
Bit rate : 448 kb/s<br>
Channel(s) : 6 canales<br>
Channel layout : L R C LFE Ls Rs<br>
Sampling rate : 48,0 kHz<br>
Frame rate : 31,250 FPS (1536 SPF)<br>
Compression mode : Con pérdida<br>
Delay relative to video : 961 ms<br>
Stream size : 385 MiB (7%)<br>
Title : Eglish Org DVD DD_5.1 @ 448 Kbps<br>
Language : Inglés<br>
Service kind : Complete Main<br>
Default : No<br>
Forced : No<br>
Dialog Normalization : -31 dB<br>
compr : -0.28 dB<br>
cmixlev : -3.0 dB<br>
surmixlev : -3 dB<br>
dialnorm_Average : -31 dB<br>
dialnorm_Minimum : -31 dB<br>
dialnorm_Maximum : -31 dB<br>
<br>
Audio #3<br>
ID : 4<br>
Format : AC-3<br>
Format/Info : Audio Coding 3<br>
Commercial name : Dolby Digital<br>
Codec ID : A_AC3<br>
Duration : 2 h 0 min<br>
Bit rate mode : Constante<br>
Bit rate : 448 kb/s<br>
Channel(s) : 2 canales<br>
Channel layout : L R<br>
Sampling rate : 48,0 kHz<br>
Frame rate : 31,250 FPS (1536 SPF)<br>
Compression mode : Con pérdida<br>
Delay relative to video : 961 ms<br>
Stream size : 385 MiB (7%)<br>
Title : Eglish Org DVD DD_2.0 @ 448 Kbps<br>
Language : Inglés<br>
Service kind : Complete Main<br>
Default : No<br>
Forced : No<br>
Dialog Normalization : -31 dB<br>
compr : -0.28 dB<br>
dialnorm_Average : -31 dB<br>
dialnorm_Minimum : -31 dB<br>
dialnorm_Maximum : -31 dB<br>
<br>
Menú<br>
00:00:00.000 : en:Chapter - 01 : Coldplay : A Head Full Of Dreams (Live in São Paulo)<br>
00:05:38.480 : en:Chapter - 02 : Coldplay : Yellow (Live In São Paulo)<br>
00:10:33.480 : en:Chapter - 03 : Coldplay : Every Teardrop Is A Waterfall (Live In São Paulo)<br>
00:14:37.000 : en:Chapter - 04 : Coldplay : The Scientist (Live In São Paulo)<br>
00:20:53.280 : en:Chapter - 05 : Coldplay : Birds (Live In São Paulo)<br>
00:25:24.400 : en:Chapter - 06 : Coldplay : Paradise (Live In São Paulo)<br>
00:32:13.760 : en:Chapter - 07 : Coldplay : Always In My Head (Live In São Paulo)<br>
00:35:43.480 : en:Chapter - 08 : Coldplay : Magic (Live In São Paulo)<br>
00:42:45.560 : en:Chapter - 09 : Coldplay : Everglow (Live In São Paulo)<br>
00:47:11.640 : en:Chapter - 10 : Coldplay : Clocks (Live In São Paulo)<br>
00:51:43.400 : en:Chapter - 11 : Coldplay : Midnight (Live In São Paulo)<br>
00:53:33.520 : en:Chapter - 12 : Coldplay : Charlie Brown (Live In São Paulo)<br>
00:57:55.599 : en:Chapter - 13 : Coldplay : Hymn For The Weekend (Live In São Paulo)<br>
01:02:38.479 : en:Chapter - 14 : Coldplay : Fix You (Live In São Paulo)<br>
01:08:35.439 : en:Chapter - 15 : Coldplay : Viva La Vida (Live In São Paulo)<br>
01:12:44.999 : en:Chapter - 16 : Coldplay : Adventure Of A Lifetime (Live In São Paulo)<br>
01:17:38.359 : en:Chapter - 17 : Coldplay : Colour Spectrum (Live In São Paulo)<br>
01:19:35.319 : en:Chapter - 18 : Coldplay : Us Against The World (Live In São Paulo)<br>
01:26:41.399 : en:Chapter - 19 : Coldplay : In My Place (Live In São Paulo)<br>
01:31:25.959 : en:Chapter - 20 : Coldplay : Paulistanos (Live In São Paulo)<br>
01:36:41.759 : en:Chapter - 21 : Coldplay : Something Just Like This (Live In São Paulo)<br>
01:40:53.759 : en:Chapter - 22 : Coldplay : A Sky Full Of Stars (Live In São Paulo)<br>
01:45:48.799 : en:Chapter - 23 : Coldplay : Up&amp;Up (Live In São Paulo)<br>
01:56:10.479 : en:Chapter - 24 : End Credits</div>
</div><br>
<b><span style="font-size: 22px">Link: OneDrive</span></b><br>
<div class="bbCodeBlock bbCodeVfcHH HiddenContent">
<div class="attribution type">Hidden Content:</div>
<blockquote>You must either reply or click 'Like' to see the hidden information contained here.</blockquote>
</div>
<div class="messageTextEndMarker">&nbsp;</div>
</blockquote>
</article>]]></description>
                <author><![CDATA[RetroBeatFM]]></author>
                </item>

                </channel></rss>